# xmcd
#
# Track frame offsets: 
#        150
#        15821
#        31576
#        47491
#        63408
#        78735
#        94906
#        114356
#        130364
#        145055
#        165880
#
# Disc length: 2508 seconds
#
# Revision: 1
# Processed by: cddbd v1.5.2PL0 Copyright (c) Steve Scherf et al.
# Submitted via: ExactAudioCopy v0.99pb4
#
DISCID=7b09ca0b
DTITLE=Johnny Winter - Johnny Winter And
DYEAR=1970
DGENRE=Blues-Rock
TTITLE0=Guess I'll Go Away
TTITLE1=Ain't That a Kindness
TTITLE2=No Time to Live
TTITLE3=Rock and Roll, Hoochie Koo
TTITLE4=Am I Here?
TTITLE5=Look Up
TTITLE6=Prodigal Son
TTITLE7=On the Limb
TTITLE8=Let the Music Play
TTITLE9=Nothing Left
TTITLE10=Funky Music
EXTD=Johnny Winter, Rick Derringer [Zehringer]: vocals, guitar\nRandy 
EXTD=Jo Hobbs: vocals, bass\nRandy Z. [Zehringer]: drums\nProduced by 
EXTD=Johnny Winter and Rick Derringer.\nEngineering: Ray Segal\nOrigin
EXTD=ally released as Columbia LP KC-30221 (1970-10).\nPackaged as dis
EXTD=c 1 of the "2-fer" BGO 2-CD "Johnny Winter And/Johnny Winter And 
EXTD=Live".\n2CD: BGO BGOCD610 (2007-12-11), EAN 5017261206107.
EXTT0=(Johnny Winter)
EXTT1=(Mark Klingman)
EXTT2=(Steve Winwood/Jim Capaldi)
EXTT3=(Rick Derringer)
EXTT4=(Randy Zehringer)
EXTT5=(Rick Derringer/Supraner)
EXTT6=(Johnny Winter)
EXTT7=(Rick Derringer)
EXTT8=(Allan Nicholls/Otis Stephens)
EXTT9=(Johnny Winter)
EXTT10=(Rick Derringer)
PLAYORDER=
